Welcome to the Android Terminal Log

To view a demonstration long press on the screen
tap "More..."
tap "printf something to the terminal

By default this invokes the following C/C++ code:

    printf("HELLO FROM NATIVE CPP\n");

like a terminal, output is sent by printing a new line
so if no output appears, try putting a new line in your printing function

Now printing logging info:

opening ptmx (master) device
opened ptmx (master) device: 35
opening /dev/pts/0 (slave) device
opened /dev/pts/0 (slave) device: 36
duping current stdin (fd 0), stdout (fd 1), and stderr (fd 2) to /dev/pts/0 (slave) device: 36
returning ptmx (master) device: 35


SOX__RESAMPLE(inFilename, inSampleRate, outFilename, outSampleRate, mChannelCount) took 0 minutes, 0 seconds, 185 milliseconds, 610 microseconds, and 923 nanoseconds to execute

std::to_string(outSampleRate).c_str() = 48000, outSampleRate = 48000
std::to_string(mChannelCount).c_str() = 2, mChannelCount = 2
ar = 2, ac = 2, outSampleRate = 48000, mChannelCount = 2
ar = 2, ac = 2
executing command: ffmpeg -f s16le -ar 2 -ac 2 -i /data/user/0/media.player.pro/files/ASSETS/00001313_44100.raw.resampled.raw -filter_complex showwavespic=s=1080x720 -frames:v 1 -y /data/user/0/media.player.pro/files/ASSETS/00001313_44100.raw.resampled.raw.waveform.png

ffmpeg version v4.3-dev-2955 Copyright (c) 2000-2020 the FFmpeg developers
  built with Android (5900059 based on r365631c) clang version 9.0.8 (https://android.googlesource.com/toolchain/llvm-project 207d7abc1a2abf3ef8d4301736d6a7ebc224a290) (based on LLVM 9.0.8svn)
  configuration: --cross-prefix=aarch64-linux-android- --sysroot=/Users/mac/Library/Android/sdk/ndk-bundle/toolchains/llvm/prebuilt/darwin-x86_64/sysroot --prefix=/Users/mac/StudioProjects/libmedia-Upated/ffmpeg/prebuilt/android-arm64/ffmpeg --pkg-config=/usr/local/bin/pkg-config --enable-version3 --arch=aarch64 --cpu=armv8-a --cc=aarch64-linux-android24-clang --cxx=aarch64-linux-android24-clang++ --target-os=android --enable-neon --enable-asm --enable-inline-asm --enable-cross-compile --enable-pic --enable-jni --enable-optimizations --enable-swscale --enable-shared --enable-v4l2-m2m --disable-outdev=fbdev --disable-indev=fbdev --disable-openssl --disable-xmm-clobber-test --disable-debug --enable-lto --disable-neon-clobber-test --disable-ffplay --disable-postproc --disable-doc --disable-htmlpages --disable-manpages --disable-podpages --disable-txtpages --disable-static --disable-sndio --disable-schannel --disable-securetransport --disable-xlib --disable-cuda --disable-cuvid --disable-nvenc --disable-vaapi --disable-vdpau --disable-videotoolbox --disable-audiotoolbox --disable-appkit --disable-alsa --disable-cuda --disable-cuvid --disable-nvenc --disable-vaapi --disable-vdpau --enable-libfontconfig --enable-libfreetype --enable-libfribidi --enable-gmp --enable-gnutls --enable-libmp3lame --enable-libass --enable-iconv --enable-libtheora --enable-libvorbis --enable-libvpx --enable-libwebp --enable-libxml2 --enable-libopencore-amrnb --enable-libopencore-amrwb --enable-libshine --enable-libspeex --enable-libwavpack --enable-libkvazaar --enable-libx264 --enable-gpl --enable-libxvid --enable-gpl --enable-libx265 --enable-gpl --enable-libvidstab --enable-gpl --enable-librubberband --enable-gpl --enable-libilbc --enable-libopus --enable-libsnappy --enable-libsoxr --enable-libaom --enable-chromaprint --enable-libtwolame --enable-sdl2 --enable-libtesseract --enable-libopenh264 --enable-zlib --enable-mediacodec
  libavutil      56. 42.102 / 56. 42.102
  libavcodec     58. 78.102 / 58. 78.102
  libavformat    58. 42.100 / 58. 42.100
  libavdevice    58.  9.103 / 58.  9.103
  libavfilter     7. 77.101 /  7. 77.101
  libswscale      5.  6.101 /  5.  6.101
  libswresample   3.  6.100 /  3.  6.100
[s16le @ 0x75d9568a00] Estimating duration from bitrate, this may be inaccurate
Guessed Channel Layout for Input Stream #0.0 : stereo
Input #0, s16le, from '/data/user/0/media.player.pro/files/ASSETS/00001313_44100.raw.resampled.raw':
  Duration: 155:49:43.00, bitrate: 0 kb/s
    Stream #0:0: Audio: pcm_s16le, 2 Hz, stereo, s16, 0 kb/s
Stream mapping:
  Stream #0:0 (pcm_s16le) -> showwavespic
  showwavespic -> Stream #0:0 (png)
Press [q] to stop, [?] for help
Output #0, image2, to '/data/user/0/media.player.pro/files/ASSETS/00001313_44100.raw.resampled.raw.waveform.png':
  Metadata:
    encoder         : Lavf58.42.100
    Stream #0:0: Video: png, rgba, 1080x720 [SAR 1:1 DAR 3:2], q=2-31, 200 kb/s, 0.0019 fps, 0.0019 tbn, 0.0019 tbc
    Metadata:
      encoder         : Lavc58.78.102 png
frame=    0 fps=0.0 q=0.0 size=N/A time=00:00:00.00 bitrate=N/A speed=   0x    frame=    0 fps=0.0 q=0.0 size=N/A time=00:00:00.00 bitrate=N/A speed=   0x    frame=    0 fps=0.0 q=0.0 size=N/A time=00:00:00.00 bitrate=N/A speed=   0x    frame=    0 fps=0.0 q=0.0 size=N/A time=00:00:00.00 bitrate=N/A speed=   0x    frame=    0 fps=0.0 q=0.0 size=N/A time=00:00:00.00 bitrate=N/A speed=   0x    frame=    0 fps=0.0 q=0.0 size=N/A time=00:00:00.00 bitrate=N/A speed=   0x    frame=    0 fps=0.0 q=0.0 size=N/A time=00:00:00.00 bitrate=N/A speed=   0x    frame=    0 fps=0.0 q=0.0 size=N/A time=00:00:00.00 bitrate=N/A speed=   0x    frame=    0 fps=0.0 q=0.0 size=N/A time=00:00:00.00 bitrate=N/A speed=   0x    frame=    0 fps=0.0 q=0.0 size=N/A time=00:00:00.00 bitrate=N/A speed=   0x    frame=    0 fps=0.0 q=0.0 size=N/A time=00:00:00.00 bitrate=N/A speed=   0x    frame=    0 fps=0.0 q=0.0 size=N/A time=00:00:00.00 bitrate=N/A speed=   0x    frame=    0 fps=0.0 q=0.0 size=N/A time=00:00:00.00 bitrate=N/A speed=   0x    frame=    0 fps=0.0 q=0.0 size=N/A time=00:00:00.00 bitrate=N/A speed=   0x    frame=    0 fps=0.0 q=0.0 size=N/A time=00:00:00.00 bitrate=N/A speed=   0x    frame=    0 fps=0.0 q=0.0 size=N/A time=00:00:00.00 bitrate=N/A speed=   0x    frame=    0 fps=0.0 q=0.0 size=N/A time=00:00:00.00 bitrate=N/A speed=   0x    frame=    0 fps=0.0 q=0.0 size=N/A time=00:00:00.00 bitrate=N/A speed=   0x    frame=    0 fps=0.0 q=0.0 size=N/A time=00:00:00.00 bitrate=N/A speed=   0x    frame=    0 fps=0.0 q=0.0 size=N/A time=00:00:00.00 bitrate=N/A speed=   0x    frame=    0 fps=0.0 q=0.0 size=N/A time=00:00:00.00 bitrate=N/A speed=   0x    frame=    0 fps=0.0 q=0.0 size=N/A time=00:00:00.00 bitrate=N/A speed=   0x    frame=    0 fps=0.0 q=0.0 size=N/A time=00:00:00.00 bitrate=N/A speed=   0x    frame=    0 fps=0.0 q=0.0 size=N/A time=00:00:00.00 bitrate=N/A speed=   0x    frame=    0 fps=0.0 q=0.0 size=N/A time=00:00:00.00 bitrate=N/A speed=   0x    frame=    0 fps=0.0 q=0.0 size=N/A time=00:00:00.00 bitrate=N/A speed=   0x    frame=    0 fps=0.0 q=0.0 size=N/A time=00:00:00.00 bitrate=N/A speed=   0x    frame=    0 fps=0.0 q=0.0 size=N/A time=00:00:00.00 bitrate=N/A speed=   0x    frame=    1 fps=0.1 q=-0.0 Lsize=N/A time=00:09:00.00 bitrate=N/A speed=37.9x    
video:58kB audio:0kB subtitle:0kB other streams:0kB global headers:0kB muxing overhead: unknown


FFMPEG_GEN_AUDIO_WAVEFORM(outFilename, true, ar, ac) took 0 minutes, 15 seconds, 821 milliseconds, 166 microseconds, and 142 nanoseconds to execute



*outsize = read__(outFilename, reinterpret_cast<char **>(out)) took 0 minutes, 0 seconds, 15 milliseconds, 365 microseconds, and 539 nanoseconds to execute



resample(filename, 44100, mChannelCount, &out, &outsize, SampleRate) took 0 minutes, 16 seconds, 22 milliseconds, 326 microseconds, and 450 nanoseconds to execute



currentAudioTrack = SoundRecording::loadFromPath(env->GetStringUTFChars(path, &val), AudioEngine.sampleRate, AudioEngine.channelCount) took 0 minutes, 16 seconds, 22 milliseconds, 508 microseconds, and 219 nanoseconds to execute

created log
emulator initialized
log has started, pid is 14931
created Logcat
emulator initialized
logcat has started, pid is 15001
emulator initialized
shell has started, pid is 15005
